<svg width="148" height="38" viewBox="0 0 148 38" fill="none" xmlns="http://www.w3.org/2000/svg" role="img" aria-label="CRMLink">
  <defs>
    <linearGradient id="cl-bg" x1="2" y1="2" x2="34" y2="36" gradientUnits="userSpaceOnUse">
      <stop offset="0%" stop-color="#06b6d4"/>
      <stop offset="48%" stop-color="#4f46e5"/>
      <stop offset="100%" stop-color="#a855f7"/>
    </linearGradient>
    <linearGradient id="cl-glass" x1="18" y1="2" x2="18" y2="22" gradientUnits="userSpaceOnUse">
      <stop offset="0%" stop-color="#ffffff" stop-opacity="0.22"/>
      <stop offset="100%" stop-color="#ffffff" stop-opacity="0"/>
    </linearGradient>
    <linearGradient id="cl-link" x1="0" y1="10" x2="0" y2="32" gradientUnits="userSpaceOnUse">
      <stop offset="0%" stop-color="#0ea5e9"/>
      <stop offset="55%" stop-color="#6366f1"/>
      <stop offset="100%" stop-color="#a855f7"/>
    </linearGradient>
    <radialGradient id="cl-node" cx="0.5" cy="0.5" r="0.5">
      <stop offset="0%" stop-color="#ffffff" stop-opacity="1"/>
      <stop offset="60%" stop-color="#ffffff" stop-opacity="0.9"/>
      <stop offset="100%" stop-color="#ffffff" stop-opacity="0"/>
    </radialGradient>
    <filter id="cl-ds" x="-20%" y="-20%" width="140%" height="140%">
      <feDropShadow dx="0" dy="1.5" stdDeviation="1.6" flood-color="#3730a3" flood-opacity="0.22"/>
    </filter>
  </defs>
  <rect x="2" y="2" width="34" height="34" rx="10" fill="url(#cl-bg)" filter="url(#cl-ds)"/>
  <rect x="3" y="3" width="32" height="16" rx="9" fill="url(#cl-glass)"/>
  <rect x="2.5" y="2.5" width="33" height="33" rx="9.5" fill="none" stroke="#ffffff" stroke-width="0.6" opacity="0.16"/>
  <path d="M 26 11 C 17 11, 11 16, 11 19 C 11 22, 17 27, 26 27"
        fill="none" stroke="#ffffff" stroke-width="2.6" stroke-linecap="round" opacity="0.96"/>
  <path d="M 13.5 19 L 26 19"
        stroke="#ffffff" stroke-width="2" stroke-linecap="round" opacity="0.85" stroke-dasharray="0.1 3.4"/>
  <circle cx="13.5" cy="19" r="3" fill="url(#cl-node)"/>
  <circle cx="13.5" cy="19" r="1.8" fill="#ffffff"/>
  <circle cx="26" cy="19" r="3" fill="url(#cl-node)"/>
  <circle cx="26" cy="19" r="1.8" fill="#ffffff"/>
  <circle cx="29.5" cy="9" r="1.6" fill="#ffffff" opacity="0.95"/>
  <circle cx="29.5" cy="9" r="2.6" fill="none" stroke="#ffffff" stroke-width="0.6" opacity="0.45"/>
  <text x="44" y="27" font-family="'Inter','SF Pro Display',system-ui,-apple-system,sans-serif" font-size="22" font-weight="800" letter-spacing="-0.6" fill="#0f172a">CRM<tspan fill="url(#cl-link)">Link</tspan></text>
</svg>
